<mxfile host="app.diagrams.net" agent="Mozilla/5.0 (Macintosh; Intel Mac OS X 10_15_7) AppleWebKit/537.36 (KHTML, like Gecko) Chrome/126.0.0.0 Safari/537.36" version="24.7.6">
  <diagram name="Page-1" id="lE9q9KroL40_Fi_hCBfo">
    <mxGraphModel dx="1781" dy="546" grid="1" gridSize="10" guides="1" tooltips="1" connect="1" arrows="1" fold="1" page="1" pageScale="1" pageWidth="827" pageHeight="1169" math="0" shadow="0">
      <root>
        <mxCell id="0" />
        <mxCell id="1" parent="0" />
        <mxCell id="YgAAKN8y-s3_hy7PNPqr-1" value="" style="rounded=0;whiteSpace=wrap;html=1;fillColor=#dae8fc;strokeColor=#6c8ebf;" vertex="1" parent="1">
          <mxGeometry x="-60" y="250" width="940" height="980" as="geometry" />
        </mxCell>
        <mxCell id="YgAAKN8y-s3_hy7PNPqr-2" value="Managment" style="text;html=1;align=center;verticalAlign=middle;whiteSpace=wrap;rounded=0;" vertex="1" parent="1">
          <mxGeometry x="-50" y="250" width="60" height="30" as="geometry" />
        </mxCell>
        <mxCell id="YgAAKN8y-s3_hy7PNPqr-3" value="" style="rounded=0;whiteSpace=wrap;html=1;fillColor=#d5e8d4;strokeColor=#82b366;" vertex="1" parent="1">
          <mxGeometry x="40" y="270" width="810" height="920" as="geometry" />
        </mxCell>
        <mxCell id="YgAAKN8y-s3_hy7PNPqr-7" value="School" style="text;html=1;align=center;verticalAlign=middle;whiteSpace=wrap;rounded=0;" vertex="1" parent="1">
          <mxGeometry x="40" y="270" width="60" height="30" as="geometry" />
        </mxCell>
        <mxCell id="YgAAKN8y-s3_hy7PNPqr-9" value="" style="rounded=0;whiteSpace=wrap;html=1;fillColor=#fff2cc;strokeColor=#d6b656;" vertex="1" parent="1">
          <mxGeometry x="250" y="310" width="480" height="400" as="geometry" />
        </mxCell>
        <mxCell id="YgAAKN8y-s3_hy7PNPqr-10" value="Teacher" style="rounded=0;whiteSpace=wrap;html=1;fillColor=#60a917;fontColor=#ffffff;strokeColor=#2D7600;" vertex="1" parent="1">
          <mxGeometry x="330" y="330" width="120" height="60" as="geometry" />
        </mxCell>
        <mxCell id="YgAAKN8y-s3_hy7PNPqr-11" value="Subject" style="rounded=0;whiteSpace=wrap;html=1;fillColor=#008a00;fontColor=#ffffff;strokeColor=#005700;" vertex="1" parent="1">
          <mxGeometry x="330" y="410" width="120" height="60" as="geometry" />
        </mxCell>
        <mxCell id="YgAAKN8y-s3_hy7PNPqr-13" value="Student" style="rounded=0;whiteSpace=wrap;html=1;fillColor=#1ba1e2;fontColor=#ffffff;strokeColor=#006EAF;" vertex="1" parent="1">
          <mxGeometry x="330" y="490" width="120" height="60" as="geometry" />
        </mxCell>
        <mxCell id="YgAAKN8y-s3_hy7PNPqr-14" value="Class" style="text;html=1;align=center;verticalAlign=middle;whiteSpace=wrap;rounded=0;" vertex="1" parent="1">
          <mxGeometry x="250" y="310" width="60" height="30" as="geometry" />
        </mxCell>
        <mxCell id="YgAAKN8y-s3_hy7PNPqr-15" value="User" style="rounded=0;whiteSpace=wrap;html=1;fillColor=#f8cecc;strokeColor=#b85450;" vertex="1" parent="1">
          <mxGeometry x="-30" y="500" width="350" height="110" as="geometry" />
        </mxCell>
        <mxCell id="YgAAKN8y-s3_hy7PNPqr-16" value="No of Subject&amp;nbsp;&lt;div&gt;No of student&amp;nbsp;&lt;/div&gt;" style="text;html=1;align=center;verticalAlign=middle;whiteSpace=wrap;rounded=0;" vertex="1" parent="1">
          <mxGeometry x="480" y="345" width="220" height="305" as="geometry" />
        </mxCell>
        <mxCell id="YgAAKN8y-s3_hy7PNPqr-18" value="" style="rounded=0;whiteSpace=wrap;html=1;fillColor=#fa6800;fontColor=#000000;strokeColor=#C73500;" vertex="1" parent="1">
          <mxGeometry x="250" y="730" width="480" height="180" as="geometry" />
        </mxCell>
        <mxCell id="YgAAKN8y-s3_hy7PNPqr-19" value="Lab" style="text;html=1;align=center;verticalAlign=middle;whiteSpace=wrap;rounded=0;" vertex="1" parent="1">
          <mxGeometry x="270" y="750" width="60" height="30" as="geometry" />
        </mxCell>
        <mxCell id="YgAAKN8y-s3_hy7PNPqr-20" value="Library" style="rounded=0;whiteSpace=wrap;html=1;fillColor=#f0a30a;fontColor=#000000;strokeColor=#BD7000;" vertex="1" parent="1">
          <mxGeometry x="250" y="950" width="480" height="210" as="geometry" />
        </mxCell>
        <mxCell id="YgAAKN8y-s3_hy7PNPqr-21" value="Teacher" style="rounded=0;whiteSpace=wrap;html=1;fillColor=#e3c800;fontColor=#000000;strokeColor=#B09500;" vertex="1" parent="1">
          <mxGeometry x="340" y="790" width="120" height="60" as="geometry" />
        </mxCell>
        <mxCell id="YgAAKN8y-s3_hy7PNPqr-22" value="Teacher" style="rounded=0;whiteSpace=wrap;html=1;fillColor=#a0522d;fontColor=#ffffff;strokeColor=#6D1F00;" vertex="1" parent="1">
          <mxGeometry x="340" y="1000" width="120" height="60" as="geometry" />
        </mxCell>
        <mxCell id="YgAAKN8y-s3_hy7PNPqr-23" value="Exam" style="rounded=0;whiteSpace=wrap;html=1;fillColor=#d80073;fontColor=#ffffff;strokeColor=#A50040;" vertex="1" parent="1">
          <mxGeometry x="80" y="650" width="120" height="60" as="geometry" />
        </mxCell>
        <mxCell id="YgAAKN8y-s3_hy7PNPqr-24" value="Ground" style="rounded=0;whiteSpace=wrap;html=1;fillColor=#a20025;fontColor=#ffffff;strokeColor=#6F0000;" vertex="1" parent="1">
          <mxGeometry x="85" y="790" width="120" height="60" as="geometry" />
        </mxCell>
        <mxCell id="YgAAKN8y-s3_hy7PNPqr-25" value="Staff" style="rounded=0;whiteSpace=wrap;html=1;fillColor=#6a00ff;fontColor=#ffffff;strokeColor=#3700CC;" vertex="1" parent="1">
          <mxGeometry x="85" y="390" width="120" height="60" as="geometry" />
        </mxCell>
        <mxCell id="YgAAKN8y-s3_hy7PNPqr-26" value="List of books" style="rounded=0;whiteSpace=wrap;html=1;fillColor=#a0522d;fontColor=#ffffff;strokeColor=#6D1F00;" vertex="1" parent="1">
          <mxGeometry x="530" y="1000" width="120" height="60" as="geometry" />
        </mxCell>
        <mxCell id="YgAAKN8y-s3_hy7PNPqr-27" value="Equipments" style="rounded=0;whiteSpace=wrap;html=1;fillColor=#fad9d5;strokeColor=#ae4132;" vertex="1" parent="1">
          <mxGeometry x="520" y="790" width="120" height="60" as="geometry" />
        </mxCell>
      </root>
    </mxGraphModel>
  </diagram>
</mxfile>
